<svg width="1280" height="1274" xmlns="http://www.w3.org/2000/svg" preserveAspectRatio="xMidYMid meet">
 <metadata>Created by potrace 1.15, written by Peter Selinger 2001-2017</metadata>

 <g>
  <title>Layer 1</title>
  <g id="svg_1" fill="#000000" transform="translate(0.000000,1274.000000) scale(0.100000,-0.100000)">
   <path id="svg_2" d="m5889,12556c-2,-2 -416,-6 -919,-10c-946,-7 -1467,-18 -1675,-37c-250,-22 -604,-95 -825,-171c-208,-71 -433,-194 -534,-291c-24,-23 -98,-91 -164,-150c-615,-552 -1027,-1170 -1374,-2067c-71,-182 -267,-764 -302,-897l-25,-93l198,0l198,0l108,173c251,401 432,643 684,916c269,290 527,464 864,580c329,113 642,159 1142,168l310,5l24,-22c22,-21 23,-28 17,-99c-22,-270 -28,-337 -37,-431c-6,-58 -13,-145 -15,-195c-2,-49 -8,-115 -13,-145c-5,-30 -9,-62 -10,-70c-1,-54 -11,-200 -19,-285c-5,-55 -10,-109 -10,-120c1,-11 -4,-76 -10,-145c-6,-69 -10,-136 -10,-150c0,-14 -7,-106 -16,-205c-17,-202 -36,-452 -41,-565c-2,-41 -9,-123 -14,-181c-6,-59 -8,-116 -6,-127c2,-12 0,-49 -5,-84c-5,-35 -12,-117 -15,-183c-3,-66 -8,-142 -9,-170c-2,-27 -7,-99 -10,-160c-4,-60 -11,-159 -16,-220c-5,-60 -14,-171 -20,-245c-33,-409 -66,-664 -156,-1205c-157,-934 -313,-1471 -578,-1980c-145,-278 -257,-455 -574,-899c-193,-272 -412,-590 -412,-601c0,-4 -13,-25 -28,-48c-95,-140 -183,-365 -219,-557c-23,-128 -24,-376 -1,-480c63,-288 216,-510 464,-676c210,-140 424,-200 684,-191c290,10 463,90 700,328c238,238 438,564 571,929c49,137 65,187 128,413c203,724 436,1959 611,3237c104,757 168,1316 205,1765c44,538 206,2758 258,3536c8,114 17,211 21,218c5,8 412,11 1548,11l1541,0l-6,-67c-3,-38 -15,-135 -27,-218c-112,-797 -241,-2015 -350,-3300c-17,-198 -37,-436 -46,-530c-29,-316 -25,-2506 5,-2912c67,-875 176,-1477 357,-1973c51,-139 178,-390 255,-505c276,-410 643,-704 1059,-845c169,-58 254,-71 486,-77c392,-10 606,33 909,182c241,119 476,288 682,493c418,413 682,897 879,1610c92,331 220,958 240,1171l7,71l-164,0c-90,0 -180,-3 -200,-6l-36,-6l-33,-152c-76,-353 -150,-530 -306,-731c-176,-228 -448,-402 -724,-463c-380,-85 -761,-42 -1119,124c-378,176 -658,529 -804,1014c-60,196 -88,343 -100,515c-15,230 -15,1665 1,1985c49,989 101,1630 213,2635c27,243 132,1089 169,1355c16,118 41,303 56,410c15,107 31,201 36,208c8,9 319,12 1493,12c815,0 1496,3 1513,6l31,6l6,597c3,328 7,722 10,877c5,238 3,286 -10,317c-10,25 -22,37 -35,37c-10,0 -23,8 -29,18c-9,16 -179,17 -3319,19c-1820,1 -3311,1 -3313,-1z"/>
   <path id="svg_3" d="m7644,5970c0,-69 1,-97 3,-62c2,34 2,90 0,125c-2,34 -3,6 -3,-63z"/>
   <path id="svg_4" d="m7632,5645c0,-16 2,-22 5,-12c2,9 2,23 0,30c-3,6 -5,-1 -5,-18z"/>
  </g>
 </g>
</svg>